<?xml version="1.0" encoding="iso-8859-1"?>
<!-- Generator: Adobe Illustrator 19.0.0, SVG Export Plug-In . SVG Version: 6.00 Build 0)  -->
<svg xmlns="http://www.w3.org/2000/svg" xmlns:xlink="http://www.w3.org/1999/xlink" version="1.1" id="Layer_1" x="0px" y="0px" viewBox="0 0 512 512" style="enable-background:new 0 0 512 512;" xml:space="preserve" width="512px" height="512px">
<g>
	<g>
		<path d="M449.546,302.995H344.083L332.114,138.66c3.798-0.198,7.602-0.309,11.384-0.309c15.172,0,30.412,1.597,45.298,4.746    l12.454,2.634c2.987,0.631,6.088-0.245,8.301-2.345c2.214-2.099,3.254-5.152,2.781-8.166l-5.425-34.644    c-0.793-5.062-5.543-8.521-10.599-7.729c-5.061,0.793-8.521,5.538-7.729,10.599l3.344,21.352    c-15.919-3.317-32.208-4.999-48.426-4.999c-7.376,0-14.838,0.351-22.176,1.043c-22.481,2.112-44.436,7.388-65.325,15.694    c-20.929-8.308-42.886-13.585-65.318-15.694c-23.646-2.219-47.398-0.889-70.603,3.956l16.629-106.247h238.582l8.361,53.396    c0.793,5.062,5.547,8.523,10.599,7.729c5.061-0.793,8.521-5.538,7.729-10.599l-9.591-61.237C391.678,3.327,387.789,0,383.221,0    H128.767c-4.568,0-8.457,3.327-9.164,7.841L99.667,135.222c-0.471,3.014,0.568,6.066,2.783,8.165    c2.214,2.099,5.319,2.976,8.301,2.345l12.459-2.635c18.638-3.953,37.663-5.437,56.679-4.44l-1.508,20.694    c-0.372,5.109,3.468,9.552,8.577,9.925c0.23,0.017,0.458,0.026,0.684,0.026c4.816,0,8.886-3.723,9.241-8.603l1.478-20.287    c18.574,2.56,36.727,7.486,54.08,14.703c1.14,0.474,2.351,0.711,3.562,0.711c1.212,0,2.425-0.237,3.568-0.714    c17.315-7.215,35.464-12.141,54.074-14.703l11.84,162.586H186.516l8.027-110.222c0.372-5.109-3.468-9.552-8.577-9.925    c-5.106-0.376-9.552,3.468-9.925,8.577l-8.125,111.57H62.454c-5.122,0-9.275,4.153-9.275,9.275v132.328    c0,5.122,4.153,9.275,9.275,9.275c61.612,0,122.111,16.772,174.956,48.503l13.814,8.298c1.469,0.883,3.123,1.325,4.776,1.325    s3.307-0.442,4.776-1.325l13.813-8.297c32.996-19.817,68.844-33.796,106.549-41.546c5.019-1.031,8.249-5.935,7.217-10.952    c-1.03-5.017-5.935-8.25-10.952-7.217c-39.763,8.172-77.569,22.914-112.367,43.813l-9.038,5.429l-9.039-5.43    c-53.076-31.87-113.47-49.432-175.231-51.031V321.546h368.541v113.899c-11.678,0.304-23.396,1.181-34.948,2.618    c-5.083,0.632-8.692,5.266-8.06,10.35c0.632,5.084,5.256,8.693,10.35,8.06c13.859-1.724,27.967-2.598,41.935-2.598    c5.122,0,9.275-4.153,9.275-9.275V312.271C458.821,307.148,454.668,302.995,449.546,302.995z" fill="#FFFFFF"/>
	</g>
</g>
<g>
	<g>
		<path d="M414.615,366.183c-15.956-15.956-41.847-16.075-57.948-0.349l-5.717,4.669c-1.721-2.612-3.715-5.071-5.978-7.332    c-15.17-15.168-39.849-15.167-55.016,0c-12.857,12.857-12.857,33.778,0,46.637c3.622,3.622,9.495,3.622,13.118,0    c3.622-3.622,3.622-9.496,0-13.118c-5.625-5.625-5.626-14.778,0-20.403c7.935-7.935,20.846-7.936,28.782,0    c10.823,10.823,10.823,28.435,0,39.257c-14.434,14.434-37.918,14.434-52.351,0c-18.945-18.945-18.945-49.773,0-68.718    c3.622-3.622,3.622-9.495,0-13.117c-3.622-3.622-9.495-3.622-13.117,0c-4.108,4.108-7.571,8.622-10.39,13.413    c-2.818-4.791-6.281-9.305-10.39-13.413c-3.621-3.622-9.494-3.622-13.117,0c-3.622,3.622-3.622,9.494,0,13.117    c18.945,18.945,18.945,49.773,0,68.718c-14.434,14.434-37.918,14.434-52.351,0c-10.823-10.823-10.823-28.435,0-39.257    c7.936-7.936,20.847-7.935,28.782,0c5.625,5.625,5.625,14.778,0,20.403c-3.622,3.622-3.621,9.495,0,13.118    c3.624,3.622,9.494,3.621,13.118,0c12.857-12.858,12.857-33.78,0-46.637c-15.167-15.168-39.848-15.168-55.017,0    c-2.263,2.263-4.257,4.722-5.978,7.332l-5.716-4.669c-16.102-15.725-41.991-15.609-57.949,0.349    c-13.583,13.582-13.583,35.683,0,49.265c5.795,5.795,13.405,8.693,21.018,8.692c7.611,0,15.224-2.898,21.017-8.692    c7.3-7.299,9.51-18.199,5.631-27.768c-1.926-4.748-7.332-7.034-12.081-5.11c-4.747,1.926-7.034,7.334-5.11,12.081    c1.073,2.647,0.463,5.66-1.557,7.679c-2.111,2.11-4.916,3.272-7.9,3.272s-5.79-1.162-7.9-3.272    c-6.349-6.349-6.349-16.681,0-23.031c8.841-8.841,23.227-8.84,32.067,0c0.22,0.22,0.451,0.429,0.693,0.626l10.763,8.789    c-0.366,2.361-0.56,4.766-0.56,7.2c0,12.37,4.817,24,13.563,32.746c10.832,10.834,25.063,16.25,39.293,16.25    c14.23,0,28.461-5.417,39.293-16.25c4.108-4.108,7.571-8.622,10.39-13.413c2.818,4.791,6.281,9.304,10.39,13.413    c10.832,10.834,25.063,16.25,39.293,16.25c14.23,0,28.461-5.417,39.293-16.25c8.747-8.746,13.563-20.376,13.563-32.746    c0-2.435-0.193-4.839-0.56-7.2l10.763-8.789c0.241-0.197,0.472-0.406,0.693-0.626c8.84-8.841,23.227-8.84,32.067,0    c6.349,6.349,6.349,16.681,0,23.031c-4.356,4.356-11.443,4.356-15.802,0c-2.018-2.018-2.629-5.032-1.556-7.677    c1.924-4.748-0.364-10.157-5.111-12.081c-4.745-1.927-10.156,0.362-12.081,5.11c-3.88,9.568-1.67,20.468,5.631,27.767    c5.615,5.615,13.078,8.706,21.018,8.706s15.403-3.092,21.018-8.706C428.198,401.866,428.198,379.764,414.615,366.183z" fill="#FFFFFF"/>
	</g>
</g>
<g>
	<g>
		<path d="M299.286,238.838c-3.622-3.622-9.495-3.622-13.117,0c-3.622,3.622-3.622,9.495,0,13.117    c2.851,2.851,2.848,7.492,0.003,10.34c-4.45,4.445-11.675,4.466-16.145,0.067c-1.828-2.444-3.266-13.124-4.317-20.934    c-0.115-0.853-0.232-1.724-0.352-2.601c2.538-18.171,6.38-38.846,19.729-47.029c4.367-2.677,5.738-8.387,3.061-12.755    c-2.677-4.367-8.387-5.74-12.755-3.061c-9.173,5.622-15.231,14.073-19.398,23.595c-4.167-9.523-10.224-17.972-19.398-23.595    c-4.368-2.676-10.077-1.306-12.755,3.061c-2.677,4.368-1.306,10.078,3.061,12.755c13.349,8.182,17.192,28.858,19.729,47.029    c-0.119,0.877-0.237,1.747-0.352,2.601c-1.051,7.809-2.49,18.489-4.317,20.933c-4.474,4.399-11.697,4.377-16.139-0.059    c-2.852-2.856-2.854-7.497-0.004-10.348c3.626-3.619,3.626-9.492,0.004-13.113c-3.622-3.622-9.496-3.622-13.117,0    c-10.079,10.079-10.08,26.487,0.003,36.581c5.85,5.845,13.531,8.767,21.216,8.766c7.684,0,15.372-2.924,21.224-8.771    c0.297-0.297,0.574-0.613,0.848-0.932c0.277,0.32,0.554,0.638,0.852,0.936c5.848,5.844,13.531,8.766,21.215,8.766    c7.686,0,15.374-2.925,21.227-8.773C309.367,265.325,309.365,248.917,299.286,238.838z" fill="#FFFFFF"/>
	</g>
</g>
<g>
	<g>
		<path d="M233.795,42.01c-7.786-7.786-18.139-12.075-29.151-12.075c-10.846,0-21.053,4.16-28.798,11.727l-14.51,11.849    c-3.967,3.24-4.559,9.082-1.317,13.051c3.24,3.967,9.084,4.559,13.051,1.317l14.849-12.126c0.241-0.197,0.472-0.406,0.693-0.626    c4.283-4.283,9.977-6.641,16.034-6.641s11.751,2.358,16.034,6.641c6.349,6.349,6.349,16.681,0,23.03    c-2.111,2.11-4.916,3.272-7.9,3.272s-5.79-1.162-7.901-3.272c-2.018-2.018-2.629-5.032-1.556-7.678    c1.923-4.748-0.365-10.156-5.113-12.081c-4.748-1.926-10.156,0.364-12.081,5.11c-3.88,9.568-1.67,20.468,5.631,27.767    c5.795,5.795,13.406,8.692,21.018,8.692s15.223-2.898,21.018-8.692C247.376,77.693,247.376,55.592,233.795,42.01z" fill="#FFFFFF"/>
	</g>
</g>
<g>
	<g>
		<path d="M350.658,53.511l-14.51-11.849c-7.746-7.566-17.952-11.727-28.798-11.727c-11.012,0-21.364,4.288-29.151,12.075    c-13.582,13.582-13.582,35.683,0,49.265c5.795,5.795,13.405,8.693,21.018,8.692c7.611,0,15.224-2.898,21.017-8.692    c7.3-7.299,9.51-18.2,5.631-27.768c-1.926-4.747-7.332-7.036-12.081-5.11c-4.746,1.926-7.034,7.334-5.11,12.081    c1.073,2.647,0.463,5.66-1.557,7.679c-2.111,2.11-4.916,3.272-7.9,3.272s-5.79-1.162-7.9-3.272c-6.349-6.349-6.349-16.681,0-23.03    c4.282-4.283,9.977-6.641,16.033-6.641c6.056,0,11.75,2.358,16.034,6.641c0.22,0.22,0.451,0.429,0.693,0.626l14.849,12.126    c3.969,3.241,9.811,2.65,13.051-1.317C355.215,62.595,354.626,56.752,350.658,53.511z" fill="#FFFFFF"/>
	</g>
</g>
<g>
</g>
<g>
</g>
<g>
</g>
<g>
</g>
<g>
</g>
<g>
</g>
<g>
</g>
<g>
</g>
<g>
</g>
<g>
</g>
<g>
</g>
<g>
</g>
<g>
</g>
<g>
</g>
<g>
</g>
</svg>
