<?xml version="1.0" encoding="iso-8859-1"?>
<!-- Generator: Adobe Illustrator 19.0.0, SVG Export Plug-In . SVG Version: 6.00 Build 0)  -->
<svg xmlns="http://www.w3.org/2000/svg" xmlns:xlink="http://www.w3.org/1999/xlink" version="1.1" id="Layer_1" x="0px" y="0px" viewBox="0 0 512.002 512.002" style="enable-background:new 0 0 512.002 512.002;" xml:space="preserve" width="512px" height="512px">
<g>
	<g>
		<path d="M402.06,2.997C400.405,1.092,398.005,0,395.483,0c-2.523,0-4.922,1.094-6.576,2.999    c-5.147,5.926-10.774,11.583-16.73,16.817c-19.124,16.823-42.07,29.495-66.357,36.645c-0.001,0-0.003,0.001-0.005,0.001    c-3.025,0.892-6.081,1.674-9.151,2.401V44.446c0-15.055-12.248-27.303-27.303-27.303h-26.708    c-15.055,0-27.303,12.248-27.303,27.303v14.417c-3.071-0.727-6.129-1.509-9.156-2.402c-24.318-7.159-47.266-19.83-66.372-36.647    c-5.881-5.169-11.506-10.829-16.721-16.82C121.446,1.092,119.05,0,116.529,0c-0.001,0-0.001,0-0.002,0    c-2.522,0-4.918,1.093-6.573,2.997c-30.57,35.167-47.406,80.218-47.406,126.851c0,46.634,16.836,91.683,47.406,126.852    c1.654,1.903,4.051,2.996,6.573,2.997c0.001,0,0.001,0,0.002,0c2.521,0,4.917-1.092,6.573-2.994    c5.216-5.994,10.841-11.654,16.723-16.823c19.107-16.809,42.057-29.477,66.374-36.636c3.025-0.892,6.081-1.674,9.151-2.401v77.543    c0,4.811,3.9,8.712,8.712,8.712c4.813,0,8.712-3.901,8.712-8.712v-80.746c7.67-1.011,15.427-1.544,23.233-1.544    c7.806,0,15.562,0.533,23.233,1.544v136.425l-46.465,15.706v-36.536c0-4.812-3.9-8.712-8.712-8.712    c-4.813,0-8.712,3.901-8.712,8.712v42.426l-3.37,1.14c-4.559,1.54-7.005,6.485-5.464,11.044c1.229,3.634,4.62,5.924,8.252,5.924    c0.193,0,0.388-0.035,0.582-0.048v18.192l-3.37,1.14c-4.559,1.54-7.005,6.485-5.464,11.044c1.229,3.634,4.62,5.924,8.252,5.924    c0.193,0,0.388-0.035,0.582-0.048v18.192l-3.37,1.14c-4.559,1.54-7.005,6.485-5.464,11.044c1.229,3.634,4.62,5.924,8.252,5.924    c0.193,0,0.388-0.035,0.582-0.048v18.192l-3.37,1.14c-4.559,1.54-7.005,6.485-5.464,11.044c1.229,3.634,4.62,5.924,8.252,5.924    c0.193,0,0.388-0.035,0.582-0.048v20.812c0,4.812,3.9,8.712,8.712,8.712h63.89c4.813,0,8.712-3.901,8.712-8.712v-47.965l3.37-1.14    c4.559-1.54,7.005-6.485,5.464-11.044c-1.294-3.826-4.988-6.152-8.834-5.893v-18.177l3.37-1.14    c4.559-1.54,7.005-6.485,5.464-11.044c-1.294-3.826-4.988-6.152-8.834-5.894v-18.176l3.37-1.14    c4.559-1.54,7.005-6.485,5.464-11.044c-1.294-3.826-4.988-6.152-8.834-5.894v-18.175l3.37-1.14    c4.559-1.54,7.005-6.485,5.464-11.044c-1.294-3.826-4.988-6.151-8.834-5.893V200.843c3.073,0.727,6.13,1.509,9.157,2.402    c24.286,7.148,47.237,19.816,66.371,36.637c5.879,5.167,11.504,10.826,16.721,16.82c1.655,1.902,4.053,2.994,6.575,2.994    s4.918-1.093,6.573-2.997c30.564-35.159,47.395-80.21,47.395-126.852C449.453,83.206,432.622,38.156,402.06,2.997z     M195.022,188.505c-21.216,7.059-41.331,17.919-58.94,31.825c-6.32-10.51-11.54-21.64-15.523-33.216    c-1.565-4.55-6.516-6.97-11.073-5.404c-4.549,1.566-6.969,6.523-5.403,11.073c4.71,13.69,10.979,26.816,18.648,39.127    c-1.982,1.884-3.932,3.816-5.842,5.792c-23.873-30.768-36.917-68.697-36.917-107.855c0-39.158,13.044-77.087,36.917-107.856    c1.909,1.975,3.855,3.904,5.835,5.787C103.654,58.371,93.61,93.501,93.61,129.848c0,10.961,0.925,21.953,2.747,32.671    c0.723,4.249,4.408,7.252,8.579,7.252c0.484,0,0.977-0.041,1.472-0.124c4.743-0.806,7.934-5.306,7.128-10.049    c-1.659-9.754-2.5-19.764-2.5-29.748c0-32.137,8.652-63.21,25.054-90.472c17.606,13.908,37.717,24.768,58.932,31.827V188.505z     M279.239,494.575h-46.465v-17.657l46.465-15.706V494.575z M279.239,442.82l-46.465,15.706v-17.859l46.465-15.706V442.82z     M279.239,406.569l-46.465,15.706v-17.86l46.465-15.706V406.569z M279.239,370.317l-46.465,15.706v-17.859l46.465-15.706V370.317z     M232.774,44.446c0-5.447,4.43-9.879,9.879-9.879h26.708c5.447,0,9.879,4.432,9.879,9.879v17.62    c-7.67,1.011-15.427,1.544-23.233,1.544c-7.806,0-15.562-0.533-23.233-1.544V44.446z M375.919,220.322    c-17.624-13.911-37.735-24.768-58.926-31.817V95.428c0-4.812-3.9-8.712-8.712-8.712s-8.712,3.901-8.712,8.712v88.198    c-14.211-3.273-28.812-4.956-43.561-4.956c-14.75,0-29.351,1.682-43.561,4.956V76.08c14.211,3.273,28.812,4.956,43.561,4.956    c18.644,0,37.061-2.644,54.739-7.861c23.488-6.916,45.828-18.527,65.167-33.801c16.403,27.264,25.055,58.337,25.055,90.474    C400.967,161.985,392.316,193.06,375.919,220.322z M395.124,237.703c-1.909-1.976-3.858-3.905-5.837-5.79    c19.065-30.589,29.105-65.72,29.105-102.066c0-36.345-10.044-71.475-29.114-102.068c1.99-1.89,3.943-3.818,5.846-5.786    c23.863,30.76,36.906,68.691,36.906,107.854S418.987,206.942,395.124,237.703z" fill="#FFFFFF"/>
	</g>
</g>
<g>
</g>
<g>
</g>
<g>
</g>
<g>
</g>
<g>
</g>
<g>
</g>
<g>
</g>
<g>
</g>
<g>
</g>
<g>
</g>
<g>
</g>
<g>
</g>
<g>
</g>
<g>
</g>
<g>
</g>
</svg>
