<?xml version="1.0" encoding="iso-8859-1"?>
<!-- Generator: Adobe Illustrator 19.0.0, SVG Export Plug-In . SVG Version: 6.00 Build 0)  -->
<svg xmlns="http://www.w3.org/2000/svg" xmlns:xlink="http://www.w3.org/1999/xlink" version="1.1" id="Layer_1" x="0px" y="0px" viewBox="0 0 512.001 512.001" style="enable-background:new 0 0 512.001 512.001;" xml:space="preserve" width="512px" height="512px">
<g>
	<g>
		<path d="M509.298,468.558L311.476,270.735c-3.591-3.591-9.411-3.592-13.003,0c-3.591,3.591-3.591,9.413,0,13.002l191.322,191.323    l-14.731,14.737L268.999,283.744l83.974-83.97c1.683,1.497,3.853,2.334,6.105,2.334c0.19,0,0.381-0.006,0.573-0.018    c2.636-0.164,5.074-1.454,6.692-3.541l31.77-40.948l49.724,11.714c0.706,0.167,1.415,0.246,2.113,0.246    c3.829,0,7.36-2.404,8.675-6.16l52.862-151.169c1.165-3.333,0.319-7.038-2.177-9.535c-2.496-2.497-6.202-3.344-9.534-2.178    L348.612,53.393c-4.44,1.553-6.993,6.208-5.913,10.788l11.714,49.687l-40.961,31.781c-2.085,1.618-3.375,4.054-3.54,6.687    c-0.154,2.458,0.695,4.858,2.323,6.686l-56.237,56.237l-56.235-56.236c1.628-1.828,2.474-4.229,2.318-6.686    c-0.167-2.636-1.459-5.072-3.547-6.689l-40.962-31.718l11.725-49.753c1.079-4.579-1.472-9.235-5.914-10.788L12.23,0.52    C8.899-0.646,5.192,0.2,2.693,2.696C0.196,5.195-0.65,8.901,0.516,12.234l52.861,151.163c1.313,3.756,4.846,6.162,8.675,6.16    c0.699,0,1.406-0.08,2.113-0.246l49.769-11.726l31.711,40.953c1.617,2.088,4.053,3.38,6.689,3.547    c0.195,0.012,0.389,0.018,0.582,0.018c2.254,0,4.426-0.839,6.11-2.339l56.228,56.238l-61.927,61.926    c-3.591,3.591-3.591,9.413,0,13.002c3.591,3.591,9.413,3.591,13.002,0l158.889-158.888l14.739,14.739L36.93,489.8l-14.731-14.737    l121.449-121.45c3.591-3.591,3.591-9.413,0-13.002c-3.591-3.591-9.413-3.591-13.002,0L2.697,468.561    c-3.591,3.59-3.591,9.41-0.001,13.001l27.731,27.743c1.725,1.725,4.063,2.695,6.502,2.695c0,0,0,0,0.001,0    c2.438,0,4.776-0.968,6.501-2.693l212.566-212.559l212.568,212.556c1.724,1.725,4.063,2.693,6.502,2.693    c2.438,0,4.777-0.97,6.502-2.695l27.73-27.743C512.889,477.969,512.887,472.148,509.298,468.558z M68.002,149.516L35.325,56.067    l66.237,85.542L68.002,149.516z M153.792,179.027L67.225,67.229l14.533,11.254c4.016,3.109,9.79,2.375,12.899-1.64    c3.109-4.015,2.375-9.79-1.64-12.899L56.072,35.336L149.5,68.015l-7.905,33.544L120.55,85.262c-4.015-3.11-9.79-2.375-12.899,1.64    s-2.375,9.79,1.64,12.899l69.728,53.992L153.792,179.027z M228.255,243.001l-56.208-56.219l7.238-7.242l7.494-7.494l56.215,56.215    L228.255,243.001z M443.995,149.519l-33.492-7.89l65.999-85.07L443.995,149.519z M455.385,35.523l-85.002,65.952l-7.888-33.458    L455.385,35.523z M332.963,153.784l112.644-87.4l-87.396,112.648L332.963,153.784z" fill="#FFFFFF"/>
	</g>
</g>
<g>
</g>
<g>
</g>
<g>
</g>
<g>
</g>
<g>
</g>
<g>
</g>
<g>
</g>
<g>
</g>
<g>
</g>
<g>
</g>
<g>
</g>
<g>
</g>
<g>
</g>
<g>
</g>
<g>
</g>
</svg>
