<?xml version="1.0" encoding="iso-8859-1"?>
<!-- Generator: Adobe Illustrator 19.0.0, SVG Export Plug-In . SVG Version: 6.00 Build 0)  -->
<svg xmlns="http://www.w3.org/2000/svg" xmlns:xlink="http://www.w3.org/1999/xlink" version="1.1" id="Layer_1" x="0px" y="0px" viewBox="0 0 512 512" style="enable-background:new 0 0 512 512;" xml:space="preserve" width="512px" height="512px">
<g>
	<g>
		<path d="M239.562,408.66c-4.723,0-8.557,3.833-8.557,8.557s3.833,8.557,8.557,8.557c4.735,0,8.557-3.833,8.557-8.557    S244.296,408.66,239.562,408.66z" fill="#FFFFFF"/>
	</g>
</g>
<g>
	<g>
		<circle cx="206.702" cy="417.215" r="8.557" fill="#FFFFFF"/>
	</g>
</g>
<g>
	<g>
		<path d="M140.979,408.66c-4.735,0-8.557,3.833-8.557,8.557s3.822,8.557,8.557,8.557c4.723,0,8.557-3.833,8.557-8.557    S145.702,408.66,140.979,408.66z" fill="#FFFFFF"/>
	</g>
</g>
<g>
	<g>
		<circle cx="173.834" cy="417.215" r="8.557" fill="#FFFFFF"/>
	</g>
</g>
<g>
	<g>
		<circle cx="272.427" cy="417.215" r="8.557" fill="#FFFFFF"/>
	</g>
</g>
<g>
	<g>
		<path d="M371.024,408.66c-4.735,0-8.557,3.833-8.557,8.557s3.822,8.557,8.557,8.557c4.723,0,8.557-3.833,8.557-8.557    S375.748,408.66,371.024,408.66z" fill="#FFFFFF"/>
	</g>
</g>
<g>
	<g>
		<path d="M403.881,408.66c-4.735,0-8.557,3.833-8.557,8.557s3.822,8.557,8.557,8.557c4.723,0,8.557-3.833,8.557-8.557    S408.604,408.66,403.881,408.66z" fill="#FFFFFF"/>
	</g>
</g>
<g>
	<g>
		<circle cx="338.153" cy="417.215" r="8.557" fill="#FFFFFF"/>
	</g>
</g>
<g>
	<g>
		<path d="M305.299,408.66c-4.735,0-8.557,3.833-8.557,8.557s3.822,8.557,8.557,8.557c4.723,0,8.545-3.833,8.545-8.557    C313.843,412.493,310.021,408.66,305.299,408.66z" fill="#FFFFFF"/>
	</g>
</g>
<g>
	<g>
		<path d="M446.939,175.461c-2.907-3.725-8.284-4.388-12.01-1.479c-3.725,2.908-4.388,8.285-1.479,12.01    c16.527,21.17,24.614,47.521,22.771,74.196c-1.851,26.776-13.591,51.468-33.062,69.527c-3.42,3.175-7.043,6.095-10.821,8.754    c-9.805-23.697-29.021-42.536-47.915-57.418c4.94-1.84,10.698-4.404,16.775-7.95c12.861-7.5,21.812-20.213,24.557-34.878    c2.768-14.787-1.028-30.023-10.413-41.803c-15.107-18.965-36.089-48.359-50.251-80.699c-11.541-26.359-4.903-56.929,16.514-76.07    c0.64-0.572,1.277-1.133,1.91-1.685c-12.186,29.157-6.433,63.844,16.484,87.557c12.053,12.466,23.171,24.529,33.044,35.854    c3.105,3.562,8.511,3.93,12.073,0.827c3.562-3.105,3.931-8.51,0.827-12.073c-10.066-11.546-21.384-23.827-33.64-36.502    c-22.29-23.063-23.998-59.282-3.975-84.245c7.106-8.853,12.771-14.915,12.828-14.975c2.648-2.827,3.067-7.083,1.021-10.372    c-2.048-3.289-6.05-4.794-9.754-3.666c-12.596,3.831-26.8,12.751-42.218,26.517c-26.952,24.086-35.306,62.544-20.789,95.697    c14.903,34.034,36.798,64.735,52.542,84.5c6.286,7.89,8.829,18.091,6.976,27.99c-1.83,9.776-7.792,18.248-16.36,23.245    c-11.873,6.928-22.273,9.369-25.393,9.987c-8.861-6.234-17.814-12.141-26.517-17.858c-28.854-18.952-56.107-36.853-56.107-53.306    c0-4.726-3.831-8.557-8.557-8.557c-4.725,0-8.557,3.831-8.557,8.557c0,16.449-27.253,34.348-56.106,53.298    c-10.122,6.648-20.587,13.522-30.842,20.908c-22.423,16.141-48.773,37.97-60.836,67.128c-3.789-2.668-7.41-5.594-10.82-8.763    c-19.47-18.059-31.213-42.751-33.063-69.526c-1.845-26.677,6.244-53.026,22.774-74.195c13.952-17.867,31.933-38.212,53.439-60.469    c22.92-23.704,28.679-58.383,16.498-87.545c0.629,0.548,1.262,1.106,1.895,1.673c21.42,19.133,28.061,49.705,16.527,76.071    c-14.149,32.313-35.142,61.72-50.261,80.699c-9.383,11.776-13.177,27.009-10.41,41.792c2.746,14.669,11.7,27.385,24.565,34.889    c4.083,2.38,9.321,1.001,11.702-3.081s1.002-9.321-3.08-11.702c-8.569-4.997-14.535-13.474-16.365-23.253    c-1.853-9.895,0.689-20.094,6.973-27.981c15.755-19.778,37.662-50.492,52.553-84.501c14.508-33.164,6.148-71.621-20.801-95.694    c-15.395-13.762-29.599-22.684-42.218-26.522c-3.707-1.128-7.704,0.375-9.752,3.662c-2.048,3.287-1.631,7.54,1.013,10.368    c0.057,0.06,5.717,6.129,12.843,14.978c20.027,24.968,18.314,61.186-3.985,84.249c-21.924,22.69-40.302,43.492-54.622,61.831    c-19.135,24.502-28.495,55.012-26.359,85.909c2.153,31.134,15.825,59.863,38.492,80.885c5.356,4.98,11.165,9.451,17.309,13.356    c-0.486,2.538-0.866,5.1-1.121,7.678h-5.022c-4.726,0-8.557,3.831-8.557,8.557V462.6c0,4.725,3.831,8.557,8.557,8.557h128.473    v32.287c0,4.725,3.831,8.556,8.557,8.556h61.219c4.725,0,8.557-3.831,8.557-8.556v-32.287H423.63c4.725,0,8.557-3.831,8.557-8.557    v-90.756c0-4.725-3.831-8.557-8.557-8.557h-5.011c-0.257-2.578-0.638-5.141-1.124-7.683c6.123-3.887,11.927-8.355,17.304-13.345    c22.674-21.03,36.343-49.757,38.495-80.892C475.429,230.472,466.069,199.964,446.939,175.461z M264.559,230.252    c11.815,11.56,28.597,22.602,46.711,34.5c9.965,6.546,20.271,13.314,30.231,20.488c22.81,16.403,50.018,39.01,58.014,68.46    c0.854,3.148,1.477,6.352,1.88,9.588H264.559V230.252z M278.055,494.887h-44.106v-23.73h44.106V494.887z M286.612,454.044H286.6    h-61.208c-0.002,0-0.003,0-0.006,0s-0.003,0-0.006,0H96.92v-73.643h33.576c4.725,0,8.557-3.831,8.557-8.557    s-3.831-8.557-8.557-8.557H110.61c0.408-3.289,1.044-6.542,1.921-9.732c8.037-29.357,35.199-51.932,57.966-68.32    c9.959-7.172,20.268-13.943,30.238-20.491c18.112-11.896,34.895-22.936,46.711-34.495v133.038h-86.147    c-4.725,0-8.556,3.831-8.556,8.557s3.831,8.557,8.556,8.557h253.775v73.643H286.612z" fill="#FFFFFF"/>
	</g>
</g>
<g>
	<g>
		<path d="M108.11,408.66c-4.735,0-8.557,3.833-8.557,8.557s3.822,8.557,8.557,8.557c4.723,0,8.557-3.833,8.557-8.557    S112.834,408.66,108.11,408.66z" fill="#FFFFFF"/>
	</g>
</g>
<g>
</g>
<g>
</g>
<g>
</g>
<g>
</g>
<g>
</g>
<g>
</g>
<g>
</g>
<g>
</g>
<g>
</g>
<g>
</g>
<g>
</g>
<g>
</g>
<g>
</g>
<g>
</g>
<g>
</g>
</svg>
