<?xml version="1.0" encoding="iso-8859-1"?>
<!-- Generator: Adobe Illustrator 19.0.0, SVG Export Plug-In . SVG Version: 6.00 Build 0)  -->
<svg xmlns="http://www.w3.org/2000/svg" xmlns:xlink="http://www.w3.org/1999/xlink" version="1.1" id="Layer_1" x="0px" y="0px" viewBox="0 0 512.002 512.002" style="enable-background:new 0 0 512.002 512.002;" xml:space="preserve" width="512px" height="512px">
<g>
	<g>
		<path d="M429.375,0c-4.518,0-8.178,3.662-8.178,8.178c0,36.112-29.38,65.492-65.493,65.492h-24.927    c-12.678-10.574-27.476-18.352-43.312-22.786v-8.172c0-4.517-3.661-8.178-8.178-8.178h-46.573c-4.518,0-8.178,3.662-8.178,8.178    v8.172c-15.833,4.432-30.63,12.211-43.312,22.787h-24.915c-36.119,0-65.503-29.38-65.503-65.492c0-4.517-3.661-8.178-8.178-8.178    c-4.518,0-8.178,3.662-8.178,8.178v62.515c0,37.14,30.221,67.356,67.367,67.356h0.178c-0.51,2.31-0.951,4.633-1.319,6.968h-4.67    c-4.518,0-8.178,3.662-8.178,8.178V207.5c0,1.503,0.412,2.907,1.12,4.117c-13.19,6.627-22.268,20.278-22.268,36.017    c0,19.413,13.803,35.663,32.11,39.452v81.534c0,33.305,19.673,63.552,50.118,77.053l58.918,26.131v4.759h-5.411    c-4.518,0-8.178,3.662-8.178,8.178s3.661,8.178,8.178,8.178h5.411v10.903c0,4.517,3.661,8.178,8.178,8.178    s8.178-3.662,8.178-8.178v-10.903h4.946c4.518,0,8.178-3.662,8.178-8.178s-3.661-8.178-8.178-8.178h-4.946v-4.759l32.995-14.634    c4.128-1.831,5.991-6.663,4.159-10.792c-1.831-4.128-6.664-5.992-10.791-4.16l-34.542,15.32l-60.465-26.817    c-24.538-10.883-40.393-35.258-40.393-62.101v-48.397c0-28.339,23.056-51.394,51.394-51.394h98.928    c28.338,0,51.394,23.055,51.394,51.394v48.397c0,26.842-15.855,51.219-40.393,62.101c-4.128,1.831-5.991,6.663-4.159,10.792    c1.83,4.128,6.661,5.991,10.791,4.16c30.445-13.503,50.118-43.748,50.118-77.053v-81.534c18.307-3.79,32.11-20.039,32.11-39.452    c0-15.74-9.079-29.393-22.271-36.019c0.707-1.21,1.119-2.613,1.119-4.115v-54.304c0-4.517-3.661-8.178-8.178-8.178h-4.661    c-0.37-2.337-0.81-4.661-1.32-6.968h0.18c37.141,0,67.357-30.216,67.357-67.356V8.178C437.553,3.662,433.892,0,429.375,0z     M138.788,270.125c-9.18-3.349-15.754-12.167-15.754-22.491c0-10.325,6.573-19.143,15.754-22.491V270.125z M373.217,225.142    c9.18,3.349,15.754,12.167,15.754,22.491c0,10.324-6.573,19.143-15.754,22.491V225.142z M240.892,50.891h30.216v73.463    c0,4.517,3.661,8.178,8.178,8.178c4.518,0,8.178-3.662,8.178-8.178V67.977c13.157,4.349,25.362,11.413,35.735,20.755    c13.184,11.874,23.007,27.022,28.408,43.814c1.315,4.076,2.36,8.248,3.139,12.471H240.892V50.891z M141.815,121.693    c-28.127,0-51.009-22.878-51.009-51V57.215c14.947,19.908,38.746,32.811,65.502,32.811h8.816    c-7.697,9.53-13.858,20.221-18.231,31.666H141.815z M232.544,252.471h-26.006c-20.538,0.001-38.958,9.2-51.393,23.681v-60.473    h77.399V252.471z M263.104,252.472h-14.203V215.68h14.203V252.472z M356.86,276.153c-12.434-14.482-30.854-23.681-51.393-23.681    h-26.006V215.68h77.399V276.153z M367.82,199.321H144.182v-37.947h27.01c4.518,0,8.178-3.662,8.178-8.178    c0-4.517-3.661-8.178-8.178-8.178h-13.927c0.778-4.221,1.82-8.395,3.131-12.478c5.4-16.785,15.222-31.933,28.406-43.808    c10.375-9.345,22.58-16.412,35.735-20.759v77.045h-28.504c-4.518,0-8.178,3.662-8.178,8.178c0,4.517,3.661,8.178,8.178,8.178    H367.82V199.321z M421.197,70.693L421.197,70.693c0,28.121-22.878,51-51.001,51h-5.089c-4.372-11.444-10.533-22.136-18.231-31.666    h8.828c26.753,0,50.547-12.9,65.493-32.808V70.693z" fill="#FFFFFF"/>
	</g>
</g>
<g>
	<g>
		<circle cx="327.36" cy="180.347" r="8.178" fill="#FFFFFF"/>
	</g>
</g>
<g>
	<g>
		<circle cx="298.813" cy="180.347" r="8.178" fill="#FFFFFF"/>
	</g>
</g>
<g>
	<g>
		<path d="M355.9,172.169c-4.514,0-8.178,3.664-8.178,8.178s3.664,8.178,8.178,8.178s8.189-3.664,8.189-8.178    S360.415,172.169,355.9,172.169z" fill="#FFFFFF"/>
	</g>
</g>
<g>
	<g>
		<path d="M270.269,172.169c-4.516,0-8.167,3.664-8.167,8.178c-0.001,4.514,3.652,8.178,8.167,8.178    c4.524,0,8.178-3.664,8.178-8.178S274.794,172.169,270.269,172.169z" fill="#FFFFFF"/>
	</g>
</g>
<g>
	<g>
		<path d="M156.1,172.169c-4.514,0-8.178,3.664-8.178,8.178s3.664,8.178,8.178,8.178s8.189-3.664,8.189-8.178    S160.614,172.169,156.1,172.169z" fill="#FFFFFF"/>
	</g>
</g>
<g>
	<g>
		<circle cx="241.728" cy="180.347" r="8.178" fill="#FFFFFF"/>
	</g>
</g>
<g>
	<g>
		<circle cx="213.181" cy="180.347" r="8.178" fill="#FFFFFF"/>
	</g>
</g>
<g>
	<g>
		<path d="M184.636,172.169c-4.514,0-8.178,3.664-8.178,8.178s3.664,8.178,8.178,8.178s8.189-3.664,8.189-8.178    S189.151,172.169,184.636,172.169z" fill="#FFFFFF"/>
	</g>
</g>
<g>
	<g>
		<path d="M283.413,298.789h-54.821c-18.669,0-33.858,15.189-33.858,33.858c0,17.609,13.747,32.436,31.298,33.754    c2.274,0.172,4.507-0.613,6.174-2.16c1.668-1.547,2.616-3.721,2.616-5.995c0-5.615,4.568-10.184,10.184-10.184h21.993    c5.615,0,10.184,4.568,10.184,10.184c0,2.276,0.948,4.448,2.616,5.995c1.518,1.408,3.507,2.183,5.562,2.183    c0.204,0,0.408-0.008,0.613-0.023c17.551-1.317,31.298-16.144,31.298-33.754C317.27,313.978,302.082,298.789,283.413,298.789z     M291.537,348.133c-3.984-9.632-13.482-16.427-24.538-16.427h-21.993c-11.056,0-20.554,6.796-24.538,16.427    c-5.583-2.95-9.378-8.834-9.378-15.486c0-9.65,7.851-17.501,17.502-17.501h54.821c9.65,0,17.501,7.851,17.501,17.501    C300.914,339.299,297.12,345.183,291.537,348.133z" fill="#FFFFFF"/>
	</g>
</g>
<g>
	<g>
		<path d="M208.847,226.559l-24.353-7.377c-4.318-1.309-8.888,1.133-10.198,5.457c-1.31,4.322,1.133,8.888,5.457,10.198l8.018,2.428    c-0.365,0.927-0.572,1.934-0.572,2.991c0,4.517,3.662,8.178,8.178,8.178c3.921,0,7.195-2.761,7.991-6.444l0.738,0.224    c0.791,0.239,1.588,0.353,2.374,0.353c3.509,0,6.753-2.277,7.824-5.81C215.613,232.434,213.17,227.868,208.847,226.559z" fill="#FFFFFF"/>
	</g>
</g>
<g>
	<g>
		<path d="M337.71,224.639c-1.311-4.323-5.874-6.767-10.198-5.457l-24.354,7.377c-4.324,1.31-6.766,5.875-5.457,10.198    c1.07,3.533,4.314,5.81,7.824,5.81c0.785,0,1.583-0.113,2.374-0.353l0.745-0.226c0.795,3.685,4.068,6.447,7.991,6.447    c4.517,0,8.178-3.662,8.178-8.178c0-1.058-0.207-2.064-0.573-2.992l8.013-2.427C336.577,233.527,339.019,228.961,337.71,224.639z" fill="#FFFFFF"/>
	</g>
</g>
<g>
</g>
<g>
</g>
<g>
</g>
<g>
</g>
<g>
</g>
<g>
</g>
<g>
</g>
<g>
</g>
<g>
</g>
<g>
</g>
<g>
</g>
<g>
</g>
<g>
</g>
<g>
</g>
<g>
</g>
</svg>
