<?xml version="1.0" encoding="iso-8859-1"?>
<!-- Generator: Adobe Illustrator 19.0.0, SVG Export Plug-In . SVG Version: 6.00 Build 0)  -->
<svg xmlns="http://www.w3.org/2000/svg" xmlns:xlink="http://www.w3.org/1999/xlink" version="1.1" id="Layer_1" x="0px" y="0px" viewBox="0 0 512 512" style="enable-background:new 0 0 512 512;" xml:space="preserve" width="512px" height="512px">
<g>
	<g>
		<path d="M509.303,399.281l-28.498-28.498c-1.728-1.728-4.07-2.698-6.513-2.698s-4.784,0.97-6.513,2.698l-8.225,8.225    l-54.231-54.231l34.897-34.898c3.597-3.597,3.597-9.427,0-13.024l-28.498-28.498c-3.597-3.596-9.427-3.597-13.025,0    l-16.088,16.088l-14.241-14.241c-3.597-3.596-9.427-3.597-13.025,0c-3.597,3.597-3.597,9.429,0,13.026l14.241,14.242    l-12.264,12.264c-3.597,3.597-3.597,9.427,0,13.024c3.597,3.596,9.427,3.597,13.025,0l34.866-34.866l15.474,15.473L305.29,398.76    l-15.474-15.474l57.695-57.695c3.597-3.597,3.597-9.427,0-13.024c-3.599-3.598-9.43-3.597-13.025,0l-35.089,35.089l-30.367-30.369    L447.786,138.53c1.339-1.339,2.231-3.058,2.559-4.923l17.671-100.881c0.518-2.956-0.437-5.979-2.559-8.101    c-2.123-2.122-5.147-3.077-8.101-2.56L356.463,39.724c-1.867,0.327-3.586,1.221-4.925,2.559l-95.545,95.545l-95.54-95.539    c-1.339-1.34-3.058-2.233-4.923-2.559L54.648,22.059c-2.952-0.518-5.979,0.436-8.101,2.559c-2.122,2.122-3.077,5.145-2.559,8.101    L61.659,133.6c0.327,1.865,1.221,3.585,2.559,4.923l82.086,82.086c1.798,1.799,4.156,2.698,6.512,2.698    c2.357,0,4.714-0.899,6.512-2.698c3.597-3.597,3.597-9.427,0-13.024L79.3,127.555L64.395,42.469l85.09,14.906l93.482,93.482    L129.383,264.441L113.3,248.358c-3.597-3.597-9.429-3.597-13.024,0L71.774,276.86c-3.597,3.597-3.597,9.427,0,13.024    l34.898,34.895l-54.223,54.232l-8.236-8.236c-1.728-1.727-4.07-2.698-6.513-2.698c-2.443,0-4.786,0.971-6.513,2.699l-28.49,28.502    c-3.596,3.597-3.594,9.427,0.001,13.023l12.687,12.689c-8.126,13.915-6.237,32.112,5.668,44.017    c6.86,6.867,15.982,10.649,25.686,10.649c6.551,0,12.835-1.729,18.341-4.962l12.683,12.685c1.727,1.728,4.07,2.699,6.513,2.699    h0.001c2.443,0,4.786-0.97,6.512-2.698l28.502-28.502c3.597-3.597,3.597-9.427,0-13.024l-8.224-8.224l36.818-36.818    c3.597-3.597,3.597-9.427,0-13.024c-3.596-3.597-9.427-3.597-13.024,0l-36.817,36.82l-32.572-32.572l54.224-54.234l80.501,80.493    c1.728,1.728,4.07,2.698,6.513,2.698c2.443,0,4.786-0.971,6.513-2.699l28.49-28.502c3.596-3.597,3.596-9.427-0.001-13.023    l-16.083-16.083l30.373-30.373l30.367,30.369l-16.093,16.093c-3.597,3.597-3.597,9.427,0,13.024l28.498,28.498    c1.728,1.727,4.07,2.698,6.513,2.698c2.444,0,4.784-0.97,6.513-2.698l34.896-34.896l54.23,54.231l-8.226,8.226    c-3.597,3.597-3.597,9.427,0,13.024l28.498,28.498c1.728,1.727,4.07,2.698,6.513,2.698s4.784-0.97,6.513-2.698l12.684-12.684    c5.505,3.231,11.789,4.96,18.341,4.96c9.702,0,18.825-3.779,25.685-10.639c6.862-6.861,10.641-15.984,10.641-25.686    c0-6.551-1.729-12.836-4.961-18.34l12.685-12.685C512.9,408.71,512.9,402.878,509.303,399.281z M46.74,461.239    c-4.781,0-9.275-1.864-12.658-5.251c-4.595-4.595-6.143-11.086-4.686-16.982l21.682,21.685    C49.673,461.039,48.223,461.239,46.74,461.239z M91.533,444.145l8.224,8.224l-15.475,15.475L22.235,405.79l15.468-15.474    l8.235,8.235L91.533,444.145z M206.71,398.758L91.311,283.372l15.478-15.477l115.388,115.388L206.71,398.758z M212.605,347.662    l-28.584-28.584l92.636-92.636c3.597-3.597,3.597-9.429,0-13.024c-3.598-3.597-9.429-3.597-13.025,0l-92.635,92.636    l-28.588-28.588L362.504,57.368l85.103-14.895l-14.906,85.091L212.605,347.662z M359.724,370.377l32.573-32.573l54.231,54.231    l-32.573,32.573L359.724,370.377z M477.914,455.994c-3.382,3.382-7.878,5.245-12.661,5.245c-1.482,0-2.931-0.199-4.335-0.548    l21.693-21.693c0.349,1.402,0.548,2.85,0.548,4.334C483.158,448.115,481.296,452.611,477.914,455.994z M427.715,467.845    l-15.474-15.474l8.224-8.224c0.001-0.001,0.003-0.001,0.003-0.002l45.598-45.597c0.002-0.004,0.006-0.006,0.009-0.01l8.217-8.217    l15.474,15.473L427.715,467.845z" fill="#FFFFFF"/>
	</g>
</g>
<g>
	<g>
		<path d="M311.128,178.945c-3.597-3.596-9.427-3.597-13.025,0l-11.648,11.648c-3.597,3.597-3.597,9.429,0,13.025    c1.799,1.798,4.154,2.698,6.512,2.698c2.357,0,4.714-0.899,6.513-2.698l11.648-11.648    C314.725,188.374,314.725,182.542,311.128,178.945z" fill="#FFFFFF"/>
	</g>
</g>
<g>
	<g>
		<path d="M388.494,101.581c-3.598-3.597-9.429-3.597-13.025,0l-54.646,54.646c-3.597,3.597-3.597,9.427,0,13.024    c1.798,1.799,4.156,2.698,6.512,2.698s4.714-0.899,6.513-2.698l54.646-54.646C392.091,111.008,392.091,105.178,388.494,101.581z" fill="#FFFFFF"/>
	</g>
</g>
<g>
	<g>
		<path d="M197.177,162.226l-71.185-71.186c-3.597-3.597-9.429-3.597-13.024,0c-3.597,3.597-3.597,9.427,0,13.024l71.185,71.186    c1.798,1.799,4.156,2.698,6.512,2.698c2.357,0,4.714-0.899,6.512-2.698C200.774,171.654,200.774,165.823,197.177,162.226z" fill="#FFFFFF"/>
	</g>
</g>
<g>
</g>
<g>
</g>
<g>
</g>
<g>
</g>
<g>
</g>
<g>
</g>
<g>
</g>
<g>
</g>
<g>
</g>
<g>
</g>
<g>
</g>
<g>
</g>
<g>
</g>
<g>
</g>
<g>
</g>
</svg>
