<?xml version="1.0" encoding="iso-8859-1"?>
<!-- Generator: Adobe Illustrator 19.0.0, SVG Export Plug-In . SVG Version: 6.00 Build 0)  -->
<svg xmlns="http://www.w3.org/2000/svg" xmlns:xlink="http://www.w3.org/1999/xlink" version="1.1" id="Layer_1" x="0px" y="0px" viewBox="0 0 512.001 512.001" style="enable-background:new 0 0 512.001 512.001;" xml:space="preserve" width="512px" height="512px">
<g>
	<g>
		<path d="M442.498,375.747c0-29.858-9.479-58.208-27.412-81.984c-16.529-21.913-39.708-38.56-65.583-47.234l-24.99-52.835    c-1.403-2.965-4.358-4.884-7.638-4.958c-3.298-0.095-6.319,1.709-7.855,4.608l-23.156,43.731    c-3.286-9.622-9.782-17.934-18.655-23.458c-17.095-10.655-33.197-22.287-47.856-34.574c-3.669-3.075-9.135-2.593-12.209,1.075    c-3.075,3.669-2.593,9.134,1.075,12.209c15.28,12.806,32.042,24.919,49.827,36.002c7.886,4.911,12.709,13.431,12.901,22.78    c0.101,5.306-1.3,10.502-4.044,15.023l-14.063,23.134c-6.146,10.116-7.296,22.275-3.154,33.362    c4.14,11.083,12.978,19.508,24.248,23.115l3.067,0.981c-1.217,2.975-2.834,6.577-4.855,10.417    c-5.127-2.556-10.815-3.914-16.67-3.914c-19.942,0-36.288,15.674-37.366,35.346c-4.54-1.3-9.248-3.3-14.098-6.042    c-1.289-0.729-2.744-1.115-4.226-1.122c-6.047-0.028-11.926-1.355-17.474-3.948c-8.143-3.8-14.977-10.206-19.246-18.039    c-0.704-1.293-1.726-2.384-2.97-3.173c-9.86-6.252-16.541-15.97-18.813-27.371c-1.143-5.711-1.106-11.473,0.112-17.122    c0.838-3.887-1.078-7.846-4.646-9.602c-11.893-5.852-20.21-16.65-22.815-29.608c-1.425-7.162-0.975-14.587,1.3-21.472    c1.179-3.566-0.074-7.485-3.102-9.706c-11.444-8.396-19.282-20.697-22.072-34.633c-2.608-13.049-0.54-26.654,5.822-38.312    c1.507-2.762,1.399-6.123-0.282-8.783c-3.714-5.873-6.297-12.346-7.679-19.233c-3.087-15.421,0.436-31.6,9.669-44.39    c1.97-2.73,2.182-6.354,0.541-9.293c-2.898-5.195-4.948-10.756-6.095-16.543c-3.366-16.827,1.205-30.945,6.451-40.7    c7.701,29.039,29.193,85.66,87.095,142.35c3.419,3.349,8.906,3.291,12.255-0.129c3.349-3.42,3.291-8.906-0.129-12.255    c-39.975-39.139-61.24-78.289-72.04-104.241c-11.715-28.159-14-47.315-14.019-47.49c-0.362-3.277-2.551-6.065-5.649-7.193    c-3.097-1.129-6.568-0.401-8.951,1.878c-1.242,1.187-30.331,29.55-22.006,71.168c1.15,5.798,2.995,11.429,5.501,16.798    c-9.787,15.893-13.289,35.08-9.611,53.449c1.469,7.323,3.984,14.291,7.496,20.775c-6.526,14.17-8.434,30.154-5.358,45.545    c3.243,16.204,11.718,30.715,24.089,41.439c-1.739,7.977-1.824,16.292-0.216,24.372c3.247,16.153,12.767,29.913,26.49,38.588    c-0.609,5.898-0.324,11.841,0.856,17.74c3.061,15.358,11.788,28.554,24.67,37.388c6.065,10.172,15.233,18.469,26.022,23.505    c7.136,3.334,14.674,5.187,22.44,5.521c8.317,4.458,16.501,7.244,24.432,8.376c6.204,12.603,19.286,20.993,33.623,20.993    c20.63,0,37.414-16.784,37.414-37.414c0-7.984-2.586-15.728-7.227-22.081c1.802-3.183,3.362-6.271,4.697-9.128h73.673    c4.786,0,8.666-3.88,8.666-8.666s-3.88-8.666-8.666-8.666h-67.207c0.417-4.006-2.007-7.875-5.975-9.144l-11.633-3.721    c-6.178-1.977-11.023-6.597-13.293-12.673c-2.271-6.079-1.64-12.748,1.73-18.295l14.064-23.136    c3.15-5.188,5.182-10.923,6.059-16.878c1.553-0.243,3.115-0.461,4.685-0.642c4.531-0.529,9.169-0.796,13.786-0.796    c11.732,0,23.304,1.702,34.404,5.062c23.934,7.216,45.455,22.246,60.6,42.324c8.71,11.548,15.126,24.336,19.112,37.899h-31.487    c-4.786,0-8.666,3.88-8.666,8.666s3.88,8.666,8.666,8.666h35.171c0.73,5.365,1.122,10.808,1.122,16.315v17.609h-78.595    c-3.216,0-6.166,1.781-7.665,4.624l-22.37,42.429c-1.62,3.072-1.249,6.815,0.942,9.51l36.39,44.749H187.312v-78.907    c0-4.786-3.88-8.666-8.666-8.666s-8.666,3.88-8.666,8.666v87.573c0,4.786,3.88,8.666,8.666,8.666h193.437    c3.344,0,6.39-1.924,7.826-4.943c1.436-3.019,1.008-6.595-1.102-9.191l-44.27-54.44l17.262-32.738h73.369v31.855    c0,4.786,3.88,8.666,8.666,8.666s8.666-3.88,8.666-8.666L442.498,375.747z M255.473,410.723c-8.79,0-16.701-5.867-19.239-14.269    c0-0.002-0.001-0.003-0.001-0.006c-0.566-1.868-0.853-3.822-0.853-5.807c0-11.073,9.014-20.082,20.094-20.082    c5.068,0,9.9,1.889,13.623,5.335c4.165,3.836,6.46,9.074,6.46,14.747C275.555,401.714,266.546,410.723,255.473,410.723z     M306.245,239.483c-0.685,0-1.372,0.02-2.058,0.03l12.055-22.767l11.569,24.459C320.709,240.073,313.504,239.483,306.245,239.483z    " fill="#FFFFFF"/>
	</g>
</g>
<g>
</g>
<g>
</g>
<g>
</g>
<g>
</g>
<g>
</g>
<g>
</g>
<g>
</g>
<g>
</g>
<g>
</g>
<g>
</g>
<g>
</g>
<g>
</g>
<g>
</g>
<g>
</g>
<g>
</g>
</svg>
